<svg xmlns="http://www.w3.org/2000/svg" width="287.289" height="283.419" viewBox="0 0 287.289 283.419">
    <defs>
        <filter id="Path_2895" x="15.69" y="12.759" width="26.042" height="26.137" filterUnits="userSpaceOnUse">
            <feOffset dy="3"/>
            <feGaussianBlur stdDeviation="3" result="blur"/>
            <feFlood flood-opacity=".161"/>
            <feComposite operator="in" in2="blur"/>
            <feComposite in="SourceGraphic"/>
        </filter>
        <style>
            .cls-1{fill:#5a5c87}.cls-6{fill:#7d64ff}
        </style>
    </defs>
    <g id="xk6_browser_logo_-_Colour" data-name="xk6 browser logo - Colour" transform="translate(-163 -176)">
        <g id="Group_3543" data-name="Group 3543" transform="translate(0 18)">
            <g id="Group_3531" data-name="Group 3531" transform="translate(0 -69.5)">
                <g id="Group_3527" data-name="Group 3527" transform="translate(-531.679 -1785.77)">
                    <path id="Path_2886" data-name="Path 2886" class="cls-1" d="M694.679 2131.535h8.421v116.62c0 9.189 5.052 14.3 14.154 14.3q121.023.007 242.045 0c9.157 0 14.231-5.073 14.231-14.229.006-38.331 0 13.338 0-24.993v5.423h8.426v-6.076c0 38.611.007-12.778 0 25.834 0 13.574-8.908 22.457-22.492 22.458q-120.882.007-241.766 0c-12.108 0-19.376-5.522-22.646-17.185a4.151 4.151 0 0 0-.38-.749z" transform="translate(0 -42.038)"/>
                    <path id="Path_2887" data-name="Path 2887" class="cls-1" d="M694.679 2012.77h201.829v8.348H703.329v29.771h62.184v8.434h-62.247v19.757h-8.587z" transform="translate(0 .5)"/>
                    <path id="Path_2888" data-name="Path 2888" class="cls-1" d="M996.693 2051.115v-29.785h-67.085V2013h75.43v163.866h-8.059v-117.244h-209.3v-8.507z" transform="translate(-23.286 .271)"/>
                    <g transform="translate(694.68 2013.27)" style="filter:url(#Path_2895)">
                        <path id="Path_2895-2" data-name="Path 2895" d="M735.658 2046.6h-8.042v-8.137h8.042z" transform="translate(-702.93 -2019.7)" style="fill:#f52b82"/>
                    </g>
                    <path id="Path_2896" data-name="Path 2896" d="M758.143 2046.668h-7.968v-8.168h7.968z" transform="translate(-13.896 -6.443)" style="fill:#f3800a"/>
                    <path id="Path_2897" data-name="Path 2897" d="M780.763 2038.452v8.04h-8.145v-8.04z" transform="translate(-19.516 -6.431)" style="fill:#86bc53"/>
                </g>
            </g>
        </g>
        <text id="xk6_browser" data-name="xk6 browser" transform="translate(166 447.419)" style="stroke:transparent;font-size:50px;font-family:TTNormsPro-Bold,TT Norms Pro;font-weight:700;fill:#7d64ff"><tspan x="0" y="0">xk6 </tspan><tspan class="cls-1" y="0">browser</tspan></text>
        <g id="Group_3524" data-name="Group 3524" transform="translate(-255.718 -89.288)">
            <path id="Path_2877" data-name="Path 2877" class="cls-6" d="M469.792 341.591c.013.049 36.694-.2 36.709-.2 1.512.025 3.195 1.7 4.386 2.886q47.515 47.484 94.907 95.091a28.472 28.472 0 0 1 2.177 3.007H469.944l49.469-48.695-50.7-50.05c.363-.678 1.103-2.08 1.079-2.039z"/>
            <path id="Path_2878" data-name="Path 2878" class="cls-6" d="m593.832 341.8-38.351 39.176-18.656-18.948c6.432-6.209 13.2-12.746 20.958-20.229z" transform="translate(12.907 .044)"/>
            <path id="Path_2879" data-name="Path 2879" class="cls-1" d="m601.173 351.6 2.393 12.192-18.582 17.169.557 1.307 20.439-2.768c.488 3.53.877 6.352 1.324 9.6l-18.931 3.369-3.739 21.906-8.269-9.375 1.858-16.845-10.275 9.579-5.264-8.089c12.007-11.865 25.016-24.726 38.489-38.045z" transform="translate(17.807 1.901)"/>
            <path id="Path_2880" data-name="Path 2880" class="cls-1" d="m632.211 387 1.677 9.471-12.937 2.743c.682 2.635 1.514 5.024 1.9 7.484 1.45 9.3-4.376 17.865-13.15 19.552-9.978 1.919-19.1-3.739-21.353-13.249-2.186-9.208 2.907-18.7 12.121-20.737 10.17-2.251 20.573-3.459 31.742-5.264zm-34.183 21.93a8.1 8.1 0 0 0 7.389 7.778c3.836.1 7.882-3.592 7.676-7.427-.244-4.546-2.9-7.263-7.448-7.631a7.174 7.174 0 0 0-7.616 7.282z" transform="translate(22.575 8.609)"/>
        </g>
    </g>
</svg>
