<svg xmlns="http://www.w3.org/2000/svg" xmlns:xlink="http://www.w3.org/1999/xlink" width="256" height="256" viewBox="0 0 256 256"><defs><filter id="a" x="64.289" y="66.577" width="21.677" height="21.721" filterUnits="userSpaceOnUse"><feOffset dy="3" input="SourceAlpha"/><feGaussianBlur stdDeviation="3" result="b"/><feFlood flood-opacity="0.161"/><feComposite operator="in" in2="b"/><feComposite in="SourceGraphic"/></filter><clipPath id="d"><rect width="256" height="256"/></clipPath></defs><g id="c" clip-path="url(#d)"><rect width="256" height="256" fill="#fff"/><g transform="translate(-101.071 -112)"><g transform="translate(163.071 176)"><path d="M694.679,2131.535h3.878v1.668c0,8.379,0,43.277,0,51.656,0,4.2,2.325,6.538,6.515,6.539q55.7,0,111.408,0c4.215,0,6.55-2.32,6.55-6.506,0-17.527,0,6.1,0-11.428v2.479h3.878v-2.778c0,17.655,0-5.842,0,11.813,0,6.207-4.1,10.268-10.353,10.268q-55.64,0-111.28,0c-5.573,0-8.918-2.525-10.423-7.858a1.892,1.892,0,0,0-.175-.342Z" transform="translate(-694.679 -2095.838)" fill="#5a5c87"/><path d="M694.679,2012.77h92.285v3.817h-88.33V2030.2h38.433v3.856H698.605v9.034h-3.926Z" transform="translate(-694.679 -2012.77)" fill="#5a5c87"/><path d="M883.248,2030.428v-13.619H852.574V2013h34.49v74.926h-3.685v-53.608h-95.7v-3.89Z" transform="translate(-754.929 -2012.999)" fill="#5a5c87"/><g transform="matrix(1, 0, 0, 1, -62, -64)" filter="url(#a)"><path d="M731.293,2042.183h-3.677v-3.721h3.677Z" transform="translate(-654.33 -1965.89)" fill="#f52b82"/></g><path d="M753.818,2042.236h-3.643V2038.5h3.643Z" transform="translate(-731.154 -2029.911)" fill="#f3800a"/><path d="M776.342,2038.452v3.676h-3.724v-3.676Z" transform="translate(-745.722 -2029.878)" fill="#86bc53"/></g><text transform="translate(170.071 299)" fill="#7d64ff" font-size="21" font-family="TTNormsPro-Bold, TT Norms Pro" font-weight="700"><tspan x="0" y="0">xk6 </tspan><tspan y="0" fill="#5a5c87">browser</tspan></text><path d="M28.56.815A6.266,6.266,0,0,1,24.213-.831a5.454,5.454,0,0,1-1.718-4,6.488,6.488,0,0,1,.68-2.759l0-.006a7.558,7.558,0,0,1,.666-1.09L28.079-15.2h4.449l-3.086,4.731A5.635,5.635,0,0,1,34.625-4.83a5.454,5.454,0,0,1-1.718,4A6.266,6.266,0,0,1,28.56.815ZM24.073-7.149A5.484,5.484,0,0,0,23.5-4.83,4.761,4.761,0,0,0,28.56-.185,4.761,4.761,0,0,0,33.625-4.83,4.6,4.6,0,0,0,29.19-9.475a1.615,1.615,0,0,0-.316.035l-.124.021-1.364.273,3.3-5.054H28.621L24.658-8.1A6.571,6.571,0,0,0,24.073-7.149ZM104.475.71a5.971,5.971,0,0,1-4.223-1.719,5.772,5.772,0,0,1-1.737-4.136,5.812,5.812,0,0,1,1.721-4.134A5.812,5.812,0,0,1,104.37-11a5.651,5.651,0,0,1,5.645,5.645,6.893,6.893,0,0,1-.049.79c-.006.056-.012.108-.016.158v.013l-.094.8H107.94l1.6,2.175-.3.3A5.781,5.781,0,0,1,108-.2l-.005,0A7.16,7.16,0,0,1,104.475.71ZM104.37-10a4.819,4.819,0,0,0-3.426,1.429,4.819,4.819,0,0,0-1.429,3.426,4.779,4.779,0,0,0,1.439,3.424A4.977,4.977,0,0,0,104.475-.29a6.172,6.172,0,0,0,3.03-.775,5.5,5.5,0,0,0,.708-.474l-.861-1.168a3.74,3.74,0,0,1-.362.253,4.153,4.153,0,0,1-2.3.645,3.137,3.137,0,0,1-3.2-2.127l-.219-.658h7.7l.008-.077a5.953,5.953,0,0,0,.043-.683A4.65,4.65,0,0,0,104.37-10Zm-1.584,6.4a2.29,2.29,0,0,0,1.9.785,3.128,3.128,0,0,0,1.764-.486l.011-.007a2.519,2.519,0,0,0,.392-.292ZM93.45.71A6.479,6.479,0,0,1,89.908-.312a5.548,5.548,0,0,1-1.242-1.037l-.3-.342L90.726-4.2l.364.4a2.863,2.863,0,0,0,.627.5l.011.007a3.119,3.119,0,0,0,1.722.486,1.33,1.33,0,0,0,.707-.126.091.091,0,0,0,.051-.07,5.164,5.164,0,0,0-1.278-.535c-1.581-.53-3.97-1.331-3.97-3.809A3.327,3.327,0,0,1,90.2-9.94,5.167,5.167,0,0,1,93.555-11a6.25,6.25,0,0,1,3.236.867,5.4,5.4,0,0,1,1.108.854l.343.343L95.9-6.446l-.363-.318a2.93,2.93,0,0,0-.519-.357l-.011-.006a2.865,2.865,0,0,0-1.451-.353.916.916,0,0,0-.523.113,5.9,5.9,0,0,0,1.254.513c1.581.53,3.97,1.331,3.97,3.809C98.255-1.176,96.769.71,93.45.71Zm-3.716-2.4a4.788,4.788,0,0,0,.7.527l.006,0A5.5,5.5,0,0,0,93.45-.29c2.311,0,3.805-1.081,3.805-2.755A2.146,2.146,0,0,0,96.231-4.9a8.859,8.859,0,0,0-2.263-1c-1.053-.353-1.962-.658-1.962-1.445,0-.562.479-1.13,1.55-1.13A3.866,3.866,0,0,1,95.5-8c.106.058.209.12.308.186L96.831-8.9a4.325,4.325,0,0,0-.544-.374l0,0A5.264,5.264,0,0,0,93.555-10a4.191,4.191,0,0,0-2.712.83,2.343,2.343,0,0,0-.883,1.82,2.146,2.146,0,0,0,1.024,1.859,8.858,8.858,0,0,0,2.263,1c1.053.353,1.962.658,1.962,1.445,0,.371-.171,1.235-1.76,1.235a4.117,4.117,0,0,1-2.263-.645,4.6,4.6,0,0,1-.442-.308ZM66.36.71a5.971,5.971,0,0,1-4.223-1.719A5.772,5.772,0,0,1,60.4-5.145a5.772,5.772,0,0,1,1.737-4.136A5.971,5.971,0,0,1,66.36-11a5.971,5.971,0,0,1,4.223,1.719A5.772,5.772,0,0,1,72.32-5.145a5.772,5.772,0,0,1-1.737,4.136A5.971,5.971,0,0,1,66.36.71Zm0-10.71a4.977,4.977,0,0,0-3.521,1.431A4.779,4.779,0,0,0,61.4-5.145a4.779,4.779,0,0,0,1.439,3.424A4.977,4.977,0,0,0,66.36-.29a4.977,4.977,0,0,0,3.521-1.431A4.779,4.779,0,0,0,71.32-5.145a4.779,4.779,0,0,0-1.439-3.424A4.977,4.977,0,0,0,66.36-10ZM47.04.71a4.451,4.451,0,0,1-2.755-.938L44.271-.24,44.18-.314V.5H40.345V-15.2H44.18v5.224l.091-.074.015-.011A4.4,4.4,0,0,1,47.04-11a4.876,4.876,0,0,1,3.6,1.67A6.227,6.227,0,0,1,52.16-5.145,6.228,6.228,0,0,1,50.635-.952,4.879,4.879,0,0,1,47.04.71ZM44.888-1.026A3.5,3.5,0,0,0,47.04-.29a3.827,3.827,0,0,0,2.852-1.331A5.231,5.231,0,0,0,51.16-5.145a5.231,5.231,0,0,0-1.269-3.517A3.824,3.824,0,0,0,47.04-10a3.5,3.5,0,0,0-2.152.736,3.259,3.259,0,0,0-.687.721l-.148.223H43.18V-14.2H41.345V-.5H43.18V-1.97h.873l.148.223A3.258,3.258,0,0,0,44.888-1.026ZM114.95.5h-3.835V-10.79h3.835v.8l.057-.049.005,0A4.006,4.006,0,0,1,117.6-11h.71v4.144L117.5-7l-.093-.013a3.7,3.7,0,0,0-.545-.045,1.978,1.978,0,0,0-1.915,2.23Zm-2.835-1h1.835V-4.83a3.376,3.376,0,0,1,.827-2.333,2.792,2.792,0,0,1,2.088-.9,4.158,4.158,0,0,1,.445.024V-9.986a3,3,0,0,0-1.655.708,4.441,4.441,0,0,0-.7.754l-.15.2h-.858V-9.79h-1.835ZM85.572.5h-3.3l-1.632-5L79.008.5h-3.3L71.745-10.79h4.119l1.586,5.109,1.674-5.109h3.035l1.674,5.109,1.586-5.109h4.119ZM83-.5h1.866l3.261-9.29H86.153L84.263-3.7h-.836L81.433-9.79H79.847l-2,6.09h-.836l-1.89-6.09H73.155L76.416-.5h1.866l1.953-5.985h.81ZM57.1.5H53.26V-10.79H57.1v.8l.057-.049.005,0A4.006,4.006,0,0,1,59.745-11h.71v4.144L59.648-7l-.093-.013a3.7,3.7,0,0,0-.545-.045A1.978,1.978,0,0,0,57.1-4.83ZM54.26-.5H56.1V-4.83a3.376,3.376,0,0,1,.827-2.333,2.792,2.792,0,0,1,2.088-.9,4.158,4.158,0,0,1,.445.024V-9.986a3,3,0,0,0-1.655.708,4.441,4.441,0,0,0-.7.754l-.15.2H56.1V-9.79H54.26ZM23.194.5H18.735l-2.41-3.663-.81.935V.5H7.287l-1.932-3L3.423.5H-1.065L2.961-5.253-.846-10.79H3.638L5.355-8.021,7.072-10.79h4.484L7.749-5.253,11.68.364V-15.2h3.835v7.779l2.948-3.369h4.691L18.9-5.943Zm-3.92-1h2.051L17.641-6.027l3.3-3.763H18.917l-4.4,5.031V-14.2H12.68V-.5h1.835V-2.6l1.92-2.215ZM7.833-.5H9.855L6.531-5.247,9.654-9.79H7.628L5.675-6.64H5.035L3.082-9.79H1.056L4.179-5.247.855-.5H2.877L5.04-3.86h.63ZM66.36-1.915a3.07,3.07,0,0,1-2.222-.926,3.273,3.273,0,0,1-.9-2.3,3.273,3.273,0,0,1,.9-2.3,3.07,3.07,0,0,1,2.222-.926,3.07,3.07,0,0,1,2.222.926,3.273,3.273,0,0,1,.9,2.3,3.273,3.273,0,0,1-.9,2.3A3.07,3.07,0,0,1,66.36-1.915Zm0-5.46a2.132,2.132,0,0,0-2.125,2.23,2.132,2.132,0,0,0,2.125,2.23,2.132,2.132,0,0,0,2.125-2.23A2.132,2.132,0,0,0,66.36-7.375ZM46.2-1.915a3.07,3.07,0,0,1-2.222-.926,3.273,3.273,0,0,1-.9-2.3,3.273,3.273,0,0,1,.9-2.3A3.07,3.07,0,0,1,46.2-8.375a3.07,3.07,0,0,1,2.222.926,3.273,3.273,0,0,1,.9,2.3,3.273,3.273,0,0,1-.9,2.3A3.07,3.07,0,0,1,46.2-1.915Zm0-5.46a2.132,2.132,0,0,0-2.125,2.23A2.132,2.132,0,0,0,46.2-2.915a2.132,2.132,0,0,0,2.125-2.23A2.132,2.132,0,0,0,46.2-7.375ZM28.56-2.02a2.821,2.821,0,0,1-2.02-.79,2.821,2.821,0,0,1-.79-2.02,2.821,2.821,0,0,1,.79-2.02,2.821,2.821,0,0,1,2.02-.79,2.821,2.821,0,0,1,2.02.79,2.821,2.821,0,0,1,.79,2.02,2.821,2.821,0,0,1-.79,2.02A2.821,2.821,0,0,1,28.56-2.02Zm0-4.62a1.714,1.714,0,0,0-1.81,1.81,1.714,1.714,0,0,0,1.81,1.81,1.714,1.714,0,0,0,1.81-1.81A1.714,1.714,0,0,0,28.56-6.64Zm78.709.945h-6.007l.219-.658a2.959,2.959,0,0,1,2.784-2.127,2.959,2.959,0,0,1,2.784,2.127Zm-4.5-1h3a1.815,1.815,0,0,0-1.5-.785A1.815,1.815,0,0,0,102.767-6.695Z" transform="translate(170.071 299)" fill="rgba(0,0,0,0)"/><g transform="translate(186.3 211.161)"><path d="M469.209,341.483c.006.022,16.778-.091,16.785-.091.691.011,1.461.776,2.005,1.319q21.726,21.712,43.4,43.48a13.026,13.026,0,0,1,1,1.375H469.279L491.9,365.3l-23.18-22.885C468.882,342.106,469.22,341.464,469.209,341.483Z" transform="translate(-468.718 -341.393)" fill="#7d64ff"/><path d="M562.891,341.8l-17.536,17.913-8.53-8.664,9.583-9.249Z" transform="translate(-499.782 -341.595)" fill="#7d64ff"/><path d="M580.283,351.6l1.094,5.575-8.5,7.85.255.6,9.346-1.264c.223,1.614.4,2.9.605,4.391l-8.656,1.54c-.544,3.187-1.081,6.334-1.709,10.016l-3.781-4.289c.214-1.945.488-4.426.85-7.7l-4.7,4.38-2.407-3.7Z" transform="translate(-511.577 -346.064)" fill="#5a5c87"/><path d="M608.13,387l.767,4.33-5.915,1.254c.312,1.2.692,2.3.868,3.422a7.737,7.737,0,0,1-6.013,8.94,8.164,8.164,0,0,1-9.763-6.058,7.686,7.686,0,0,1,5.542-9.482C598.266,388.379,603.023,387.827,608.13,387ZM592.5,397.029a3.7,3.7,0,0,0,3.379,3.557,3.565,3.565,0,0,0,3.51-3.4,3.4,3.4,0,0,0-3.405-3.489A3.28,3.28,0,0,0,592.5,397.029Z" transform="translate(-523.052 -362.211)" fill="#5a5c87"/></g></g></g></svg>